<svg xmlns="http://www.w3.org/2000/svg" xmlns:xlink="http://www.w3.org/1999/xlink" width="120" zoomAndPan="magnify" viewBox="0 0 90 89.999999" height="120" preserveAspectRatio="xMidYMid meet" version="1.0"><defs><clipPath id="id1"><path d="M 2.84375 4 L 59 4 L 59 44 L 2.84375 44 Z M 2.84375 4 " clip-rule="nonzero"/></clipPath><clipPath id="id2"><path d="M 19 15 L 86.84375 15 L 86.84375 54 L 19 54 Z M 19 15 " clip-rule="nonzero"/></clipPath><clipPath id="id3"><path d="M 2.84375 4 L 56 4 L 56 42 L 2.84375 42 Z M 2.84375 4 " clip-rule="nonzero"/></clipPath><clipPath id="id4"><path d="M 32 45 L 58 45 L 58 89.414062 L 32 89.414062 Z M 32 45 " clip-rule="nonzero"/></clipPath></defs><g clip-path="url(#id1)"><path fill="#000000" d="M 58.390625 15.730469 C 52.660156 15.730469 47.425781 18.5 44.152344 23.027344 C 36.359375 20.773438 28.589844 26.675781 28.589844 34.832031 C 23.816406 34.832031 19.863281 38.390625 19.207031 43.019531 L 12.339844 43.019531 C 7.101562 43.019531 2.859375 38.742188 2.859375 33.46875 C 2.859375 28.191406 7.101562 23.917969 12.339844 23.917969 C 12.339844 15.746094 20.125 9.859375 27.898438 12.113281 C 35.992188 0.925781 53.117188 2.984375 58.390625 15.730469 Z M 58.390625 15.730469 " fill-opacity="1" fill-rule="nonzero"/></g><g clip-path="url(#id2)"><path fill="#000000" d="M 74.640625 53.9375 L 28.589844 53.9375 C 23.355469 53.9375 19.109375 49.660156 19.109375 44.386719 C 19.109375 39.109375 23.355469 34.832031 28.589844 34.832031 C 28.589844 26.664062 36.378906 20.777344 44.152344 23.027344 C 53.027344 10.761719 72.113281 14.703125 75.53125 29.410156 C 81.847656 29.867188 86.828125 35.175781 86.828125 41.65625 C 86.828125 48.4375 81.371094 53.9375 74.640625 53.9375 Z M 74.640625 53.9375 " fill-opacity="1" fill-rule="nonzero"/></g><path fill="#000000" d="M 72.117188 22.363281 C 64.316406 16.046875 52.800781 17.546875 46.859375 25.757812 C 39.070312 23.5 31.300781 29.40625 31.300781 37.5625 C 23.671875 37.5625 19.292969 46.128906 23.378906 52.363281 C 20.804688 50.65625 19.109375 47.722656 19.109375 44.386719 C 19.109375 39.109375 23.355469 34.832031 28.589844 34.832031 C 28.589844 26.660156 36.378906 20.777344 44.152344 23.027344 C 50.988281 13.578125 64.847656 13.25 72.117188 22.363281 Z M 72.117188 22.363281 " fill-opacity="1" fill-rule="nonzero"/><g clip-path="url(#id3)"><path fill="#000000" d="M 55.863281 11.449219 C 48.0625 5.132812 36.546875 6.628906 30.609375 14.839844 C 22.816406 12.585938 15.046875 18.488281 15.046875 26.648438 C 7.417969 26.648438 3.042969 35.214844 7.128906 41.449219 C 4.554688 39.742188 2.859375 36.804688 2.859375 33.46875 C 2.859375 28.191406 7.101562 23.917969 12.339844 23.917969 C 12.339844 15.746094 20.125 9.859375 27.898438 12.113281 C 34.734375 2.664062 48.59375 2.335938 55.863281 11.449219 Z M 55.863281 11.449219 " fill-opacity="1" fill-rule="nonzero"/></g><g clip-path="url(#id4)"><path fill="#000000" d="M 51.617188 45.75 L 32.652344 70.3125 L 43.488281 70.3125 L 35.363281 89.414062 L 57.03125 64.851562 L 46.199219 64.851562 Z M 51.617188 45.75 " fill-opacity="1" fill-rule="nonzero"/></g><path fill="#000000" d="M 27.238281 48.476562 C 27.238281 49.230469 26.628906 49.84375 25.882812 49.84375 C 25.132812 49.84375 24.527344 49.230469 24.527344 48.476562 C 24.527344 47.726562 25.132812 47.113281 25.882812 47.113281 C 26.628906 47.113281 27.238281 47.726562 27.238281 48.476562 Z M 27.238281 48.476562 " fill-opacity="1" fill-rule="nonzero"/><path fill="#000000" d="M 24.527344 46.433594 C 24.527344 46.808594 24.226562 47.113281 23.851562 47.113281 C 23.476562 47.113281 23.171875 46.808594 23.171875 46.433594 C 23.171875 46.054688 23.476562 45.75 23.851562 45.75 C 24.226562 45.75 24.527344 46.054688 24.527344 46.433594 Z M 24.527344 46.433594 " fill-opacity="1" fill-rule="nonzero"/><path fill="#000000" d="M 10.984375 37.5625 C 10.984375 38.316406 10.378906 38.925781 9.628906 38.925781 C 8.882812 38.925781 8.273438 38.316406 8.273438 37.5625 C 8.273438 36.808594 8.882812 36.199219 9.628906 36.199219 C 10.378906 36.199219 10.984375 36.808594 10.984375 37.5625 Z M 10.984375 37.5625 " fill-opacity="1" fill-rule="nonzero"/><path fill="#000000" d="M 8.273438 35.515625 C 8.273438 35.890625 7.972656 36.199219 7.597656 36.199219 C 7.222656 36.199219 6.921875 35.890625 6.921875 35.515625 C 6.921875 35.140625 7.222656 34.832031 7.597656 34.832031 C 7.972656 34.832031 8.273438 35.140625 8.273438 35.515625 Z M 8.273438 35.515625 " fill-opacity="1" fill-rule="nonzero"/></svg>