<svg xmlns="http://www.w3.org/2000/svg" xmlns:xlink="http://www.w3.org/1999/xlink" width="192" zoomAndPan="magnify" viewBox="0 0 144 143.999998" height="192" preserveAspectRatio="xMidYMid meet" version="1.0"><defs><clipPath id="id1"><path d="M 3.585938 6 L 94 6 L 94 69 L 3.585938 69 Z M 3.585938 6 " clip-rule="nonzero"/></clipPath><clipPath id="id2"><path d="M 30 24 L 140.085938 24 L 140.085938 87 L 30 87 Z M 30 24 " clip-rule="nonzero"/></clipPath><clipPath id="id3"><path d="M 3.585938 6 L 90 6 L 90 67 L 3.585938 67 Z M 3.585938 6 " clip-rule="nonzero"/></clipPath><clipPath id="id4"><path d="M 52 73 L 92 73 L 92 143.707031 L 52 143.707031 Z M 52 73 " clip-rule="nonzero"/></clipPath></defs><g clip-path="url(#id1)"><path fill="#628ab2" d="M 93.851562 24.4375 C 84.535156 24.4375 76.035156 28.921875 70.714844 36.253906 C 58.054688 32.601562 45.425781 42.15625 45.425781 55.359375 C 37.664062 55.359375 31.246094 61.117188 30.179688 68.613281 L 19.015625 68.613281 C 10.507812 68.613281 3.609375 61.691406 3.609375 53.152344 C 3.609375 44.613281 10.507812 37.691406 19.015625 37.691406 C 19.015625 24.464844 31.671875 14.9375 44.304688 18.582031 C 57.453125 0.472656 85.285156 3.804688 93.851562 24.4375 Z M 93.851562 24.4375 " fill-opacity="1" fill-rule="nonzero"/></g><g clip-path="url(#id2)"><path fill="#8dc6ff" d="M 120.257812 86.28125 L 45.425781 86.28125 C 36.917969 86.28125 30.019531 79.359375 30.019531 70.820312 C 30.019531 62.28125 36.917969 55.359375 45.425781 55.359375 C 45.425781 42.132812 58.078125 32.605469 70.714844 36.253906 C 85.132812 16.394531 116.152344 22.777344 121.703125 46.578125 C 131.96875 47.320312 140.0625 55.914062 140.0625 66.402344 C 140.0625 77.378906 131.195312 86.28125 120.257812 86.28125 Z M 120.257812 86.28125 " fill-opacity="1" fill-rule="nonzero"/></g><path fill="#d1e8ff" d="M 116.15625 35.175781 C 103.480469 24.953125 84.765625 27.378906 75.117188 40.667969 C 62.457031 37.015625 49.828125 46.574219 49.828125 59.777344 C 37.433594 59.777344 30.320312 73.644531 36.960938 83.734375 C 32.777344 80.972656 30.019531 76.222656 30.019531 70.820312 C 30.019531 62.28125 36.917969 55.359375 45.425781 55.359375 C 45.425781 42.132812 58.078125 32.605469 70.714844 36.253906 C 81.820312 20.957031 104.34375 20.425781 116.15625 35.175781 Z M 116.15625 35.175781 " fill-opacity="1" fill-rule="nonzero"/><g clip-path="url(#id3)"><path fill="#384f66" d="M 89.746094 17.507812 C 77.070312 7.285156 58.355469 9.710938 48.707031 23 C 36.042969 19.347656 23.417969 28.902344 23.417969 42.109375 C 11.019531 42.109375 3.910156 55.972656 10.546875 66.066406 C 6.367188 63.304688 3.609375 58.550781 3.609375 53.152344 C 3.609375 44.613281 10.507812 37.691406 19.015625 37.691406 C 19.015625 24.464844 31.671875 14.9375 44.304688 18.582031 C 55.410156 3.285156 77.933594 2.757812 89.746094 17.507812 Z M 89.746094 17.507812 " fill-opacity="1" fill-rule="nonzero"/></g><g clip-path="url(#id4)"><path fill="#ffc68d" d="M 82.84375 73.027344 L 52.03125 112.785156 L 69.636719 112.785156 L 56.429688 143.707031 L 91.644531 103.949219 L 74.039062 103.949219 Z M 82.84375 73.027344 " fill-opacity="1" fill-rule="nonzero"/></g><path fill="#d1e8ff" d="M 43.226562 77.445312 C 43.226562 78.667969 42.242188 79.65625 41.023438 79.65625 C 39.808594 79.65625 38.824219 78.667969 38.824219 77.445312 C 38.824219 76.226562 39.808594 75.238281 41.023438 75.238281 C 42.242188 75.238281 43.226562 76.226562 43.226562 77.445312 Z M 43.226562 77.445312 " fill-opacity="1" fill-rule="nonzero"/><path fill="#d1e8ff" d="M 38.824219 74.132812 C 38.824219 74.742188 38.332031 75.238281 37.722656 75.238281 C 37.117188 75.238281 36.625 74.742188 36.625 74.132812 C 36.625 73.523438 37.117188 73.027344 37.722656 73.027344 C 38.332031 73.027344 38.824219 73.523438 38.824219 74.132812 Z M 38.824219 74.132812 " fill-opacity="1" fill-rule="nonzero"/><path fill="#384f66" d="M 16.816406 59.777344 C 16.816406 60.996094 15.828125 61.988281 14.613281 61.988281 C 13.398438 61.988281 12.414062 60.996094 12.414062 59.777344 C 12.414062 58.558594 13.398438 57.566406 14.613281 57.566406 C 15.828125 57.566406 16.816406 58.558594 16.816406 59.777344 Z M 16.816406 59.777344 " fill-opacity="1" fill-rule="nonzero"/><path fill="#384f66" d="M 12.414062 56.464844 C 12.414062 57.074219 11.921875 57.566406 11.3125 57.566406 C 10.707031 57.566406 10.214844 57.074219 10.214844 56.464844 C 10.214844 55.855469 10.707031 55.359375 11.3125 55.359375 C 11.921875 55.359375 12.414062 55.855469 12.414062 56.464844 Z M 12.414062 56.464844 " fill-opacity="1" fill-rule="nonzero"/></svg>