<svg xmlns="http://www.w3.org/2000/svg" xmlns:xlink="http://www.w3.org/1999/xlink" width="100%" zoomAndPan="magnify" viewBox="0 0 30 30.000001" height="100%" preserveAspectRatio="xMidYMid meet" version="1.0"><defs><clipPath id="id1"><path d="M 1.011719 5 L 29.316406 5 L 29.316406 27.496094 L 1.011719 27.496094 Z M 1.011719 5 " clip-rule="nonzero"/></clipPath><clipPath id="id2"><path d="M 18 1.367188 L 29 1.367188 L 29 9 L 18 9 Z M 18 1.367188 " clip-rule="nonzero"/></clipPath></defs><g clip-path="url(#id1)"><path fill="#404969" d="M 25.125 22.332031 C 24.980469 22.339844 24.859375 22.433594 24.8125 22.566406 C 24.769531 22.699219 24.8125 22.847656 24.925781 22.933594 C 25.398438 23.308594 25.667969 23.855469 25.667969 24.433594 C 25.667969 25.503906 24.785156 26.371094 23.699219 26.371094 C 23.019531 26.371094 22.398438 26.027344 22.035156 25.457031 C 21.972656 25.359375 21.859375 25.296875 21.742188 25.296875 C 21.742188 25.296875 21.738281 25.296875 21.738281 25.296875 C 21.621094 25.300781 21.507812 25.363281 21.445312 25.464844 C 20.933594 26.3125 20.039062 26.816406 19.050781 26.816406 C 18.144531 26.816406 17.292969 26.378906 16.765625 25.648438 C 16.710938 25.570312 16.621094 25.519531 16.523438 25.507812 C 16.507812 25.507812 16.5 25.507812 16.484375 25.507812 C 16.402344 25.507812 16.316406 25.539062 16.253906 25.59375 C 15.375 26.382812 14.242188 26.816406 13.0625 26.816406 C 10.734375 26.816406 8.71875 25.109375 8.378906 22.847656 C 8.355469 22.679688 8.148438 22.5625 7.976562 22.5625 C 6.066406 22.5625 4.511719 21.039062 4.511719 19.160156 C 4.511719 17.28125 6.066406 15.757812 7.976562 15.757812 C 8.308594 15.757812 8.65625 15.816406 9.042969 15.9375 C 9.167969 15.980469 9.308594 15.945312 9.398438 15.847656 C 9.492188 15.75 9.515625 15.609375 9.464844 15.488281 C 9.253906 14.980469 9.148438 14.453125 9.148438 13.917969 C 9.148438 11.628906 11.042969 9.765625 13.375 9.765625 C 15.089844 9.765625 16.621094 10.773438 17.277344 12.335938 C 17.320312 12.433594 17.410156 12.511719 17.519531 12.535156 C 17.628906 12.5625 17.742188 12.53125 17.824219 12.457031 C 18.339844 12.007812 18.992188 11.761719 19.660156 11.761719 C 21.191406 11.761719 22.433594 12.980469 22.433594 14.484375 C 22.433594 14.816406 22.367188 15.148438 22.238281 15.476562 C 22.183594 15.617188 22.226562 15.777344 22.351562 15.867188 C 22.472656 15.957031 22.640625 15.960938 22.761719 15.871094 C 23.40625 15.402344 24.160156 15.152344 24.9375 15.152344 C 26.960938 15.152344 28.605469 16.769531 28.605469 18.753906 C 28.605469 20.664062 27.074219 22.234375 25.125 22.332031 Z M 4.679688 16.4375 C 3.046875 16.4375 1.71875 15.132812 1.71875 13.53125 C 1.71875 11.941406 3.039062 10.636719 4.660156 10.628906 C 4.785156 10.625 4.902344 10.558594 4.960938 10.449219 C 5.023438 10.34375 5.015625 10.210938 4.949219 10.109375 C 4.664062 9.664062 4.511719 9.160156 4.511719 8.648438 C 4.511719 7.144531 5.757812 5.917969 7.292969 5.917969 C 8.367188 5.917969 9.355469 6.542969 9.808594 7.507812 C 9.886719 7.675781 10.085938 7.746094 10.257812 7.679688 C 10.496094 7.578125 10.753906 7.527344 11.015625 7.527344 C 11.972656 7.527344 12.769531 8.214844 12.925781 9.113281 C 10.425781 9.335938 8.460938 11.40625 8.460938 13.917969 C 8.460938 14.328125 8.515625 14.738281 8.621094 15.136719 C 8.402344 15.097656 8.1875 15.082031 7.976562 15.082031 C 6.730469 15.082031 5.609375 15.625 4.847656 16.480469 C 4.796875 16.453125 4.738281 16.4375 4.679688 16.4375 Z M 29.292969 18.753906 C 29.292969 16.394531 27.339844 14.476562 24.9375 14.476562 C 24.296875 14.476562 23.671875 14.617188 23.097656 14.886719 C 23.113281 14.753906 23.121094 14.617188 23.121094 14.484375 C 23.121094 12.609375 21.570312 11.085938 19.660156 11.085938 C 18.972656 11.085938 18.296875 11.292969 17.726562 11.679688 C 16.917969 10.164062 15.363281 9.183594 13.617188 9.097656 C 13.453125 7.832031 12.347656 6.851562 11.015625 6.851562 C 10.765625 6.851562 10.523438 6.882812 10.289062 6.949219 C 9.675781 5.90625 8.527344 5.242188 7.292969 5.242188 C 5.378906 5.242188 3.824219 6.773438 3.824219 8.648438 C 3.824219 9.113281 3.921875 9.570312 4.109375 9.996094 C 2.371094 10.265625 1.03125 11.75 1.03125 13.53125 C 1.03125 15.414062 2.511719 16.957031 4.390625 17.101562 C 4.03125 17.707031 3.824219 18.410156 3.824219 19.160156 C 3.824219 21.316406 5.535156 23.089844 7.75 23.226562 C 8.253906 25.675781 10.492188 27.492188 13.0625 27.492188 C 14.292969 27.492188 15.476562 27.082031 16.4375 26.328125 C 17.097656 27.0625 18.046875 27.492188 19.050781 27.492188 C 20.117188 27.492188 21.097656 27.019531 21.757812 26.210938 C 22.253906 26.742188 22.953125 27.046875 23.699219 27.046875 C 25.164062 27.046875 26.359375 25.875 26.359375 24.433594 C 26.359375 23.886719 26.179688 23.359375 25.855469 22.917969 C 27.832031 22.503906 29.292969 20.789062 29.292969 18.753906 " fill-opacity="1" fill-rule="nonzero"/></g><path fill="#404969" d="M 20.179688 20.875 C 20.179688 21.808594 19.40625 22.570312 18.449219 22.570312 C 17.496094 22.570312 16.722656 21.808594 16.722656 20.875 L 16.722656 19.195312 C 16.722656 18.261719 17.496094 17.5 18.449219 17.5 C 19.40625 17.5 20.179688 18.261719 20.179688 19.195312 Z M 18.449219 16.824219 C 17.117188 16.824219 16.035156 17.886719 16.035156 19.195312 L 16.035156 20.875 C 16.035156 22.183594 17.117188 23.246094 18.449219 23.246094 C 19.785156 23.246094 20.867188 22.183594 20.867188 20.875 L 20.867188 19.195312 C 20.867188 17.886719 19.785156 16.824219 18.449219 16.824219 " fill-opacity="1" fill-rule="nonzero"/><path fill="#404969" d="M 23.601562 22.570312 L 22.542969 22.570312 L 23.355469 21.84375 C 23.710938 21.523438 23.832031 21.027344 23.65625 20.578125 C 23.492188 20.148438 23.105469 19.878906 22.628906 19.871094 C 21.902344 19.871094 21.308594 20.449219 21.308594 21.164062 C 21.308594 21.351562 21.464844 21.503906 21.652344 21.503906 C 21.84375 21.503906 21.996094 21.351562 21.996094 21.164062 C 21.996094 20.824219 22.28125 20.546875 22.636719 20.546875 C 22.882812 20.550781 22.980469 20.738281 23.015625 20.816406 C 23.070312 20.960938 23.070312 21.183594 22.894531 21.34375 L 21.421875 22.660156 C 21.316406 22.753906 21.28125 22.902344 21.332031 23.03125 C 21.382812 23.160156 21.511719 23.246094 21.652344 23.246094 L 23.601562 23.246094 C 23.792969 23.246094 23.945312 23.097656 23.945312 22.910156 C 23.945312 22.722656 23.792969 22.570312 23.601562 22.570312 " fill-opacity="1" fill-rule="nonzero"/><path fill="#404969" d="M 15.042969 21.589844 C 14.875 21.496094 14.667969 21.554688 14.570312 21.714844 C 14.257812 22.25 13.699219 22.570312 13.078125 22.570312 C 12.125 22.570312 11.351562 21.808594 11.351562 20.875 L 11.351562 19.195312 C 11.351562 18.261719 12.125 17.5 13.078125 17.5 C 13.699219 17.5 14.257812 17.820312 14.570312 18.355469 C 14.667969 18.519531 14.875 18.574219 15.039062 18.480469 C 15.207031 18.386719 15.261719 18.179688 15.167969 18.019531 C 14.734375 17.28125 13.9375 16.824219 13.078125 16.824219 C 11.746094 16.824219 10.664062 17.886719 10.664062 19.195312 L 10.664062 20.875 C 10.664062 22.183594 11.746094 23.246094 13.078125 23.246094 C 13.9375 23.246094 14.734375 22.789062 15.167969 22.054688 C 15.261719 21.890625 15.207031 21.683594 15.042969 21.589844 " fill-opacity="1" fill-rule="nonzero"/><g clip-path="url(#id2)"><path fill="#404969" d="M 20.496094 4.945312 C 20.625 4.945312 20.757812 4.96875 20.917969 5.015625 C 21.042969 5.054688 21.1875 5.015625 21.277344 4.917969 C 21.367188 4.820312 21.390625 4.679688 21.335938 4.558594 C 21.234375 4.332031 21.183594 4.089844 21.183594 3.84375 C 21.183594 2.847656 22.007812 2.039062 23.019531 2.039062 C 24.03125 2.039062 24.851562 2.847656 24.851562 3.84375 C 24.851562 3.886719 24.847656 3.925781 24.839844 3.96875 C 24.839844 3.972656 24.832031 4.050781 24.828125 4.054688 C 24.816406 4.160156 24.859375 4.269531 24.945312 4.34375 C 25.027344 4.414062 25.140625 4.441406 25.25 4.417969 C 25.335938 4.398438 25.417969 4.386719 25.492188 4.386719 C 26.085938 4.386719 26.566406 4.863281 26.566406 5.445312 L 26.554688 5.5625 C 26.542969 5.667969 26.59375 5.769531 26.671875 5.839844 C 26.746094 5.914062 26.867188 5.941406 26.96875 5.929688 C 27.488281 5.851562 28.007812 6.300781 28.007812 6.84375 C 28.007812 7.355469 27.585938 7.769531 27.066406 7.769531 L 20.496094 7.769531 C 19.703125 7.769531 19.058594 7.136719 19.058594 6.359375 C 19.058594 5.578125 19.703125 4.945312 20.496094 4.945312 Z M 20.496094 8.445312 L 27.066406 8.445312 C 27.964844 8.445312 28.695312 7.726562 28.695312 6.84375 C 28.695312 6.019531 28.058594 5.339844 27.242188 5.253906 C 27.148438 4.402344 26.421875 3.734375 25.539062 3.710938 C 25.46875 2.40625 24.367188 1.363281 23.019531 1.363281 C 21.628906 1.363281 20.496094 2.476562 20.496094 3.84375 C 20.496094 3.988281 20.507812 4.128906 20.53125 4.269531 C 20.519531 4.269531 20.507812 4.269531 20.496094 4.269531 C 19.324219 4.269531 18.371094 5.207031 18.371094 6.359375 C 18.371094 7.507812 19.324219 8.445312 20.496094 8.445312 " fill-opacity="1" fill-rule="nonzero"/></g></svg>