<svg xmlns="http://www.w3.org/2000/svg" xmlns:xlink="http://www.w3.org/1999/xlink" width="50" zoomAndPan="magnify" viewBox="0 0 37.5 37.499999" height="50" preserveAspectRatio="xMidYMid meet" version="1.0"><defs><clipPath id="id1"><path d="M 17 2 L 21 2 L 21 35 L 17 35 Z M 17 2 " clip-rule="nonzero"/></clipPath><clipPath id="id2"><path d="M 34.980469 18.746094 L 18.539062 35.1875 L 2.101562 18.746094 L 18.539062 2.308594 Z M 34.980469 18.746094 " clip-rule="nonzero"/></clipPath><clipPath id="id3"><path d="M 34.980469 18.746094 L 18.539062 35.1875 L 2.101562 18.746094 L 18.539062 2.308594 Z M 34.980469 18.746094 " clip-rule="nonzero"/></clipPath><clipPath id="id4"><path d="M 34.980469 18.746094 L 18.539062 35.1875 L 2.101562 18.746094 L 18.539062 2.308594 Z M 34.980469 18.746094 " clip-rule="nonzero"/></clipPath></defs><g clip-path="url(#id1)"><g clip-path="url(#id2)"><g clip-path="url(#id3)"><g clip-path="url(#id4)"><path fill="#404969" d="M 19.523438 34.125 C 19.765625 33.886719 19.914062 33.550781 19.914062 33.183594 C 19.914062 32.5 19.394531 31.933594 18.730469 31.863281 L 18.730469 6.226562 L 20.074219 7.570312 L 18.582031 2.351562 L 17.09375 7.570312 L 18.4375 6.226562 L 18.4375 31.863281 C 17.773438 31.9375 17.253906 32.5 17.253906 33.183594 C 17.253906 33.917969 17.851562 34.515625 18.582031 34.515625 C 18.949219 34.515625 19.28125 34.367188 19.523438 34.125 Z M 19.523438 34.125 " fill-opacity="1" fill-rule="nonzero"/></g></g></g></g></svg>